<?xml version="1.0" standalone="no"?><!-- Generator: Gravit.io --><svg xmlns="http://www.w3.org/2000/svg" xmlns:xlink="http://www.w3.org/1999/xlink" style="isolation:isolate" viewBox="0 0 1000 400" width="1000" height="400"><defs><clipPath id="_clipPath_EFMIUUKHBfo8INthbECUw0K9ugnK9OhF"><rect width="1000" height="400"/></clipPath></defs><g clip-path="url(#_clipPath_EFMIUUKHBfo8INthbECUw0K9ugnK9OhF)"><g><path d=" M 176.665 57.849 L 176.665 57.849 L 176.665 57.849 L 44.315 105.043 L 64.506 280.028 L 176.665 342.151 L 176.665 342.151 L 176.665 342.151 L 288.825 280.028 L 309.005 105.043 L 176.665 57.849 L 176.665 57.849 Z " fill="rgb(220,20,49)"/><path d=" M 176.665 57.849 L 176.665 89.402 L 176.665 89.257 L 176.665 233.258 L 176.665 233.258 L 176.665 342.151 L 176.665 342.151 L 288.825 280.028 L 309.005 105.043 L 176.665 57.849 L 176.665 57.849 Z " fill="rgb(195,14,47)"/><path d=" M 176.665 89.267 L 93.959 274.776 L 124.778 274.776 L 141.412 233.268 L 211.64 233.268 L 228.274 274.776 L 259.123 274.776 L 176.665 89.267 L 176.665 89.267 Z  M 200.836 207.681 L 152.494 207.681 L 176.665 149.539 L 200.836 207.681 Z " fill="rgb(255,255,255)"/></g><g><g><g><path d=" M 514.373 63.599 L 478.005 126.599 L 441.637 63.599 L 320.505 63.599 L 478.005 336.401 L 635.505 63.599 L 514.373 63.599 Z " fill="rgb(74,176,131)"/></g><g><path d=" M 514.373 63.599 L 478.005 126.599 L 441.637 63.599 L 383.505 63.599 L 478.005 227.285 L 572.505 63.611 L 514.373 63.611 L 514.373 63.599 Z " fill="rgb(67,84,102)"/></g></g></g><g><path d=" M 942 200.007 C 942 180.462 917.531 161.946 880.006 150.457 C 888.663 112.214 884.812 81.801 867.862 72.05 C 863.753 69.743 859.1 68.58 854.389 68.681 L 854.389 82.091 C 856.77 82.019 859.13 82.558 861.243 83.657 C 869.418 88.345 872.969 106.185 870.201 129.174 C 869.536 134.827 868.452 140.781 867.133 146.853 C 854.566 143.823 841.811 141.634 828.954 140.298 C 821.292 129.741 812.935 119.706 803.937 110.261 C 823.536 92.025 841.945 82.059 854.453 82.059 L 854.453 68.649 L 854.453 68.649 C 837.922 68.649 816.274 80.45 794.379 100.832 C 772.495 80.503 750.847 68.842 734.305 68.842 L 734.305 82.252 C 746.749 82.252 765.211 92.175 784.821 110.272 C 775.865 119.704 767.567 129.74 759.987 140.309 C 747.102 141.63 734.323 143.842 721.743 146.928 C 720.36 140.91 719.34 135.128 718.622 129.485 C 715.8 106.517 719.287 88.656 727.397 83.904 C 729.52 82.769 731.911 82.227 734.316 82.338 L 734.316 68.928 L 734.316 68.928 C 729.567 68.828 724.877 69.99 720.724 72.297 C 703.828 82.037 700.042 112.407 708.763 150.532 C 671.356 162.075 647.005 180.569 647.005 200.018 C 647.005 219.467 671.474 238.079 708.999 249.568 C 700.342 287.812 704.193 318.224 721.143 327.975 C 725.269 330.288 729.941 331.452 734.67 331.344 C 751.201 331.344 772.849 319.544 794.744 299.161 C 816.628 319.49 838.276 331.151 854.818 331.151 C 859.567 331.251 864.257 330.089 868.41 327.782 C 885.305 318.042 889.092 287.672 880.371 249.547 C 917.649 238.036 942 219.521 942 200.007 Z  M 863.689 159.897 C 861.469 167.653 858.701 175.656 855.569 183.648 C 853.101 178.842 850.516 173.993 847.695 169.219 C 844.873 164.446 841.977 159.715 839.038 155.145 C 847.598 156.443 855.826 158.009 863.711 159.929 L 863.689 159.897 Z  M 836.152 223.94 C 831.464 232.061 826.647 239.753 821.659 246.908 C 812.702 247.691 803.615 248.109 794.476 248.109 C 785.336 248.109 776.314 247.691 767.421 246.962 Q 759.912 236.234 752.864 224.112 Q 746.009 212.312 740.356 200.179 C 744.089 192.123 748.294 184.088 752.799 176.182 C 757.487 168.061 762.304 160.369 767.292 153.214 C 776.25 152.431 785.336 152.013 794.476 152.013 C 803.615 152.013 812.637 152.431 821.53 153.16 Q 829.04 163.888 836.088 176.01 Q 842.942 187.81 848.596 199.943 C 844.831 208.031 840.625 216.099 836.173 223.973 L 836.152 223.94 Z  M 855.579 216.12 C 858.798 224.176 861.598 232.211 863.883 240.053 C 856.008 241.973 847.705 243.604 839.113 244.859 C 842.063 240.225 845.002 235.483 847.77 230.613 C 850.537 225.743 853.123 220.958 855.644 216.152 L 855.579 216.12 Z  M 794.604 280.281 C 788.707 274.157 783.128 267.733 777.891 261.036 C 783.255 261.272 788.833 261.454 794.422 261.454 C 800.011 261.454 805.664 261.336 811.135 261.036 C 805.98 267.755 800.466 274.19 794.615 280.313 L 794.604 280.281 Z  M 749.871 244.88 C 741.289 243.615 733.093 242.059 725.198 240.128 C 727.418 232.372 730.186 224.369 733.318 216.377 C 735.786 221.183 738.371 226.032 741.192 230.806 C 744.014 235.58 746.932 240.321 749.882 244.891 L 749.871 244.88 Z  M 794.304 119.744 C 800.201 125.868 805.78 132.292 811.017 138.989 C 805.654 138.753 800.075 138.571 794.486 138.571 C 788.897 138.571 783.244 138.689 777.773 138.989 C 782.936 132.288 788.458 125.871 794.315 119.766 L 794.304 119.744 Z  M 749.806 155.145 C 746.856 159.779 743.917 164.521 741.149 169.391 C 738.382 174.261 735.786 179.046 733.329 183.82 C 730.111 175.763 727.311 167.728 725.026 159.886 C 732.921 158.063 741.224 156.443 749.817 155.177 L 749.806 155.145 Z  M 695.386 230.43 C 674.103 221.355 660.329 209.447 660.329 200.007 C 660.329 190.567 674.103 178.552 695.386 169.584 C 700.557 167.364 706.21 165.379 712.046 163.512 C 715.724 176.011 720.243 188.247 725.573 200.136 C 720.3 211.976 715.841 224.162 712.228 236.609 C 706.285 234.732 700.632 232.694 695.397 230.463 L 695.386 230.43 Z  M 727.74 316.358 C 719.566 311.67 716.015 293.83 718.783 270.841 C 719.448 265.187 720.531 259.234 721.851 253.162 C 734.418 256.191 747.172 258.381 760.03 259.716 C 767.691 270.274 776.049 280.308 785.046 289.753 C 765.447 307.99 747.039 317.956 734.53 317.956 C 732.176 317.998 729.848 317.46 727.751 316.39 L 727.74 316.358 Z  M 870.416 270.54 C 873.237 293.508 869.75 311.369 861.64 316.122 C 859.517 317.257 857.127 317.798 854.721 317.688 C 842.277 317.688 823.815 307.765 804.206 289.668 C 813.162 280.236 821.459 270.2 829.04 259.631 C 841.925 258.309 854.703 256.097 867.283 253.012 C 868.626 258.807 869.661 264.668 870.383 270.573 L 870.416 270.54 Z  M 893.565 230.43 C 888.395 232.651 882.741 234.636 876.906 236.502 C 873.228 224.003 868.708 211.767 863.378 199.879 C 868.652 188.039 873.11 175.853 876.723 163.405 C 882.677 165.272 888.33 167.31 893.619 169.541 C 914.902 178.617 928.676 190.524 928.676 199.964 C 928.676 209.405 914.817 221.462 893.533 230.463 L 893.565 230.43 Z " fill="rgb(97,195,219)"/><circle vector-effect="non-scaling-stroke" cx="794.4327685755602" cy="200.02875358423776" r="27.48380684133565" fill="rgb(97,195,219)"/></g></g></svg>